<svg height="512pt" viewBox="0 0 512 512" width="512pt" xmlns="http://www.w3.org/2000/svg"><path d="m504.5 0h-312.832031c-4.144531 0-7.5 3.355469-7.5 7.5s3.355469 7.5 7.5 7.5h305.332031v65h-374.742188v-65h38.5c4.144532 0 7.5-3.355469 7.5-7.5s-3.355468-7.5-7.5-7.5h-46c-4.140624 0-7.5 3.355469-7.5 7.5l.003907 119.5h-99.761719c-4.144531 0-7.5 3.355469-7.5 7.5v313.167969c0 4.140625 3.355469 7.5 7.5 7.5s7.5-3.359375 7.5-7.5v-225.667969h433c4.144531 0 7.5-3.355469 7.5-7.5s-3.355469-7.5-7.5-7.5h-433v-65h482v65h-17.167969c-4.140625 0-7.5 3.355469-7.5 7.5s3.359375 7.5 7.5 7.5h17.167969v275h-482v-17c0-4.144531-3.355469-7.5-7.5-7.5s-7.5 3.355469-7.5 7.5v24.5c0 4.144531 3.355469 7.5 7.5 7.5h497c4.144531 0 7.5-3.355469 7.5-7.5v-497c0-4.144531-3.355469-7.5-7.5-7.5zm-382.238281 127v-32h374.738281v32zm0 0"/><path d="m138.257812 47c0 12.40625 10.09375 22.5 22.5 22.5s22.5-10.09375 22.5-22.5-10.09375-22.5-22.5-22.5-22.5 10.09375-22.5 22.5zm30 0c0 4.136719-3.363281 7.5-7.5 7.5-4.136718 0-7.5-3.363281-7.5-7.5s3.363282-7.5 7.5-7.5c4.136719 0 7.5 3.363281 7.5 7.5zm0 0"/><path d="m243.257812 47c0-12.40625-10.09375-22.5-22.5-22.5s-22.5 10.09375-22.5 22.5 10.09375 22.5 22.5 22.5 22.5-10.09375 22.5-22.5zm-30 0c0-4.136719 3.363282-7.5 7.5-7.5 4.136719 0 7.5 3.363281 7.5 7.5s-3.363281 7.5-7.5 7.5c-4.136718 0-7.5-3.363281-7.5-7.5zm0 0"/><path d="m303.257812 47c0-12.40625-10.09375-22.5-22.5-22.5s-22.5 10.09375-22.5 22.5 10.09375 22.5 22.5 22.5 22.5-10.09375 22.5-22.5zm-30 0c0-4.136719 3.363282-7.5 7.5-7.5 4.136719 0 7.5 3.363281 7.5 7.5s-3.363281 7.5-7.5 7.5c-4.136718 0-7.5-3.363281-7.5-7.5zm0 0"/><path d="m31 174c0 12.40625 10.09375 22.5 22.5 22.5s22.5-10.09375 22.5-22.5-10.09375-22.5-22.5-22.5-22.5 10.09375-22.5 22.5zm30 0c0 4.136719-3.363281 7.5-7.5 7.5s-7.5-3.363281-7.5-7.5 3.363281-7.5 7.5-7.5 7.5 3.363281 7.5 7.5zm0 0"/><path d="m91 174c0 12.40625 10.09375 22.5 22.5 22.5s22.5-10.09375 22.5-22.5-10.09375-22.5-22.5-22.5-22.5 10.09375-22.5 22.5zm30 0c0 4.136719-3.363281 7.5-7.5 7.5s-7.5-3.363281-7.5-7.5 3.363281-7.5 7.5-7.5 7.5 3.363281 7.5 7.5zm0 0"/><path d="m151 174c0 12.40625 10.09375 22.5 22.5 22.5s22.5-10.09375 22.5-22.5-10.09375-22.5-22.5-22.5-22.5 10.09375-22.5 22.5zm30 0c0 4.136719-3.363281 7.5-7.5 7.5s-7.5-3.363281-7.5-7.5 3.363281-7.5 7.5-7.5 7.5 3.363281 7.5 7.5zm0 0"/><path d="m231.902344 268.027344h-176c-4.140625 0-7.5 3.359375-7.5 7.5v148c0 4.144531 3.359375 7.5 7.5 7.5h176c4.144531 0 7.5-3.355469 7.5-7.5v-148c0-4.140625-3.355469-7.5-7.5-7.5zm-7.5 15v63.082031l-45.96875 39.960937-60.355469-46.183593c-4.285156-3.277344-10.339844-3.078125-14.398437.484375l-40.277344 35.34375v-92.6875zm-161 133v-20.355469l47.929687-42.058594 81.566407 62.414063zm161 0h-6.816406l-26.992188-20.648438 33.808594-29.394531zm0 0"/><path d="m184.203125 342.207031c14.5625 0 26.414063-11.851562 26.414063-26.417969 0-14.5625-11.851563-26.414062-26.414063-26.414062-14.566406 0-26.417969 11.851562-26.417969 26.414062 0 14.566407 11.851563 26.417969 26.417969 26.417969zm0-37.832031c6.292969 0 11.414063 5.121094 11.414063 11.414062 0 6.296876-5.121094 11.417969-11.414063 11.417969-6.296875 0-11.417969-5.121093-11.417969-11.417969 0-6.292968 5.121094-11.414062 11.417969-11.414062zm0 0"/><path d="m283.703125 344.5h163.964844c4.140625 0 7.5-3.359375 7.5-7.5 0-4.144531-3.359375-7.5-7.5-7.5h-163.964844c-4.144531 0-7.5 3.355469-7.5 7.5 0 4.140625 3.355469 7.5 7.5 7.5zm0 0"/><path d="m283.703125 301.953125h81.980469c4.144531 0 7.5-3.355469 7.5-7.5 0-4.140625-3.355469-7.5-7.5-7.5h-81.980469c-4.144531 0-7.5 3.359375-7.5 7.5 0 4.144531 3.355469 7.5 7.5 7.5zm0 0"/><path d="m283.703125 380.5h163.964844c4.140625 0 7.5-3.359375 7.5-7.5 0-4.144531-3.359375-7.5-7.5-7.5h-163.964844c-4.144531 0-7.5 3.355469-7.5 7.5 0 4.140625 3.355469 7.5 7.5 7.5zm0 0"/><path d="m283.703125 416.5h163.964844c4.140625 0 7.5-3.359375 7.5-7.5 0-4.144531-3.359375-7.5-7.5-7.5h-163.964844c-4.144531 0-7.5 3.355469-7.5 7.5 0 4.140625 3.355469 7.5 7.5 7.5zm0 0"/><path d="m54.472656 463.894531c0 4.140625 3.355469 7.5 7.5 7.5h385.695313c4.140625 0 7.5-3.359375 7.5-7.5 0-4.144531-3.359375-7.5-7.5-7.5h-385.695313c-4.144531 0-7.5 3.355469-7.5 7.5zm0 0"/></svg>